<svg width="100" height="100" viewBox="0 0 100 100" fill="none" xmlns="http://www.w3.org/2000/svg">
<g filter="url(#filter0_d_120_357)">
<path fill-rule="evenodd" clip-rule="evenodd" d="M9.37516 50C9.37516 27.5625 27.5627 9.375 50.0002 9.375C72.4377 9.375 90.6252 27.5625 90.6252 50V61.6375C91.0965 61.4709 91.6009 61.4197 92.096 61.4884C92.5912 61.5571 93.0627 61.7435 93.4709 62.0321C93.8791 62.3207 94.2121 62.703 94.4419 63.1469C94.6718 63.5908 94.7918 64.0834 94.7918 64.5833V72.9167C94.7917 73.4195 94.6702 73.9149 94.4376 74.3608C94.2051 74.8066 93.8684 75.1898 93.4562 75.4777C93.0439 75.7657 92.5682 75.9498 92.0696 76.0146C91.5709 76.0795 91.064 76.023 90.5918 75.85C90.5696 76.6833 90.5279 77.4542 90.4668 78.1625C90.3002 79.975 89.9335 81.6458 89.0377 83.2125C88.4418 84.2542 87.6918 85.2 86.8085 86.0125C85.4752 87.2417 83.9252 87.9417 82.2127 88.4625C80.596 88.95 78.5835 89.35 76.2002 89.8167L75.8918 89.8792C74.2668 90.2 72.7918 90.4917 71.5585 90.5875C70.2377 90.6917 68.746 90.6208 67.321 89.8167C66.479 89.3385 65.7376 88.7018 65.1377 87.9417C64.1502 86.675 63.821 85.2333 63.6793 83.9C63.5418 82.65 63.5418 81.1 63.5418 79.3667V57.55C63.5418 56.075 63.5418 54.75 63.646 53.6625C63.7585 52.5 64.021 51.2458 64.7835 50.0833C65.4127 49.125 66.2585 48.325 67.2543 47.75C68.4835 47.0417 69.7668 46.8833 70.921 46.875C71.9918 46.8667 73.2752 46.9958 74.6752 47.1333L74.9668 47.1625C77.4085 47.4 79.4627 47.6042 81.1252 47.9333C82.2668 48.1583 83.346 48.4667 84.3585 48.9542C84.0804 40.027 80.3386 31.5586 73.9256 25.3422C67.5125 19.1258 58.9316 15.6495 50.0002 15.6495C41.0687 15.6495 32.4879 19.1258 26.0748 25.3422C19.6617 31.5586 15.9199 40.027 15.6418 48.9542C16.6543 48.4667 17.7335 48.1625 18.8752 47.9333C20.5418 47.6042 22.5918 47.4042 25.0335 47.1625L25.3252 47.1333C26.7252 46.9958 28.0085 46.8667 29.0752 46.875C30.2335 46.8833 31.5168 47.0417 32.7418 47.75C33.7418 48.325 34.5877 49.125 35.2168 50.0833C35.9793 51.25 36.2377 52.5 36.3543 53.6625C36.4585 54.7458 36.4585 56.075 36.4585 57.55V79.3667C36.4585 81.1 36.4585 82.6458 36.3252 83.9C36.1793 85.2333 35.8502 86.675 34.8627 87.9417C34.2627 88.7018 33.5213 89.3385 32.6793 89.8167C31.2543 90.6208 29.7627 90.6917 28.4377 90.5875C26.9818 90.4277 25.5353 90.1913 24.1043 89.8792L23.8002 89.8167C21.4168 89.35 19.4043 88.95 17.7877 88.4625C16.0752 87.9417 14.5252 87.2417 13.1918 86.0125C12.3092 85.1994 11.5573 84.2549 10.9627 83.2125C10.0668 81.6458 9.70433 79.975 9.5335 78.1625C9.46803 77.3931 9.42634 76.6219 9.4085 75.85C8.93633 76.023 8.42939 76.0795 7.93073 76.0146C7.43207 75.9498 6.95642 75.7657 6.54416 75.4777C6.13189 75.1898 5.7952 74.8066 5.56268 74.3608C5.33015 73.9149 5.20865 73.4195 5.2085 72.9167V64.5833C5.20857 64.0834 5.32857 63.5908 5.55842 63.1469C5.78827 62.703 6.12127 62.3207 6.52946 62.0321C6.93765 61.7435 7.40911 61.5571 7.90428 61.4884C8.39944 61.4197 8.90385 61.4709 9.37516 61.6375V50ZM15.6252 71.6375C15.6252 74.3542 15.6252 76.1792 15.7585 77.5833C15.8835 78.9417 16.1085 79.625 16.3835 80.1083C16.6724 80.6028 17.0196 81.0389 17.4252 81.4167C17.8085 81.7708 18.3752 82.1083 19.6002 82.4792C20.8835 82.8708 22.5877 83.2083 25.1543 83.7167C26.996 84.0792 28.1127 84.2917 28.9293 84.3583C29.1661 84.3861 29.4054 84.3847 29.6418 84.3542C29.752 84.2838 29.8504 84.1967 29.9335 84.0958C30.0351 83.8188 30.0941 83.528 30.1085 83.2333C30.2043 82.3542 30.2085 81.15 30.2085 79.2083V57.6875C30.2085 56.0292 30.2085 55.0167 30.1335 54.2708C30.1201 54.0129 30.0724 53.7579 29.9918 53.5125C29.8992 53.3801 29.7817 53.2669 29.646 53.1792C29.4443 53.1396 29.239 53.1214 29.0335 53.125C27.9513 53.1588 26.8712 53.2394 25.796 53.3667C23.1668 53.625 21.421 53.8 20.0877 54.0667C18.8168 54.3167 18.2252 54.6 17.8293 54.9C17.246 55.3375 16.746 55.9 16.371 56.5667C16.1043 57.0417 15.8793 57.725 15.7585 59.1042C15.6293 60.525 15.6252 62.375 15.6252 65.1167V71.6375ZM84.3752 65.1167C84.3752 62.375 84.3752 60.525 84.2418 59.1042C84.1168 57.7292 83.896 57.0417 83.6293 56.5625C83.2632 55.9124 82.7667 55.345 82.171 54.8958C81.7752 54.6 81.1835 54.3167 79.9127 54.0625C78.5793 53.8 76.8335 53.625 74.2043 53.3667C73.1292 53.2394 72.049 53.1588 70.9668 53.125C70.7615 53.12 70.5562 53.1368 70.3543 53.175C70.2182 53.2639 70.1007 53.3786 70.0085 53.5125C69.9283 53.7566 69.8806 54.0101 69.8668 54.2667C69.796 55.0167 69.7918 56.0292 69.7918 57.6833V79.2083C69.7918 81.15 69.796 82.3542 69.8918 83.2292C69.9058 83.5253 69.9648 83.8175 70.0668 84.0958C70.1557 84.2069 70.2529 84.2931 70.3585 84.3542C70.4252 84.3667 70.6252 84.3958 71.0668 84.3542C71.8918 84.2917 73.0043 84.0792 74.846 83.7167C77.4127 83.2083 79.1168 82.8708 80.4002 82.4792C81.6252 82.1083 82.1918 81.7708 82.5752 81.4167C82.9807 81.0389 83.3279 80.6028 83.6168 80.1083C83.8918 79.6208 84.1168 78.9417 84.2418 77.5833C84.371 76.175 84.3752 74.3542 84.3752 71.6375V65.1167Z" fill="#891BC9"/>
</g>
<defs>
<filter id="filter0_d_120_357" x="-4" y="0" width="108" height="108" filterUnits="userSpaceOnUse" color-interpolation-filters="sRGB">
<feFlood flood-opacity="0" result="BackgroundImageFix"/>
<feColorMatrix in="SourceAlpha" type="matrix" values="0 0 0 0 0 0 0 0 0 0 0 0 0 0 0 0 0 0 127 0" result="hardAlpha"/>
<feOffset dy="4"/>
<feGaussianBlur stdDeviation="2"/>
<feComposite in2="hardAlpha" operator="out"/>
<feColorMatrix type="matrix" values="0 0 0 0 0 0 0 0 0 0 0 0 0 0 0 0 0 0 0.25 0"/>
<feBlend mode="normal" in2="BackgroundImageFix" result="effect1_dropShadow_120_357"/>
<feBlend mode="normal" in="SourceGraphic" in2="effect1_dropShadow_120_357" result="shape"/>
</filter>
</defs>
</svg>
