<svg width="150" height="150" viewBox="0 0 150 150" fill="none" xmlns="http://www.w3.org/2000/svg">
<path fill-rule="evenodd" clip-rule="evenodd" d="M14.0625 75C14.0625 41.3437 41.3438 14.0625 75 14.0625C108.656 14.0625 135.938 41.3437 135.938 75V92.4563C136.644 92.2063 137.401 92.1296 138.144 92.2326C138.887 92.3356 139.594 92.6153 140.206 93.0481C140.818 93.481 141.318 94.0545 141.663 94.7204C142.007 95.3863 142.187 96.1251 142.188 96.875V109.375C142.187 110.129 142.005 110.872 141.656 111.541C141.307 112.21 140.802 112.785 140.184 113.217C139.566 113.648 138.852 113.925 138.104 114.022C137.356 114.119 136.596 114.034 135.887 113.775C135.854 115.025 135.792 116.181 135.7 117.244C135.45 119.963 134.9 122.469 133.556 124.819C132.662 126.381 131.537 127.8 130.212 129.019C128.213 130.862 125.888 131.913 123.319 132.694C120.894 133.425 117.875 134.025 114.3 134.725L113.838 134.819C111.4 135.3 109.188 135.737 107.338 135.881C105.356 136.037 103.119 135.931 100.981 134.725C99.7183 134.008 98.6061 133.053 97.7063 131.913C96.225 130.013 95.7312 127.85 95.5188 125.85C95.3125 123.975 95.3125 121.65 95.3125 119.05V86.325C95.3125 84.1125 95.3125 82.125 95.4688 80.4938C95.6375 78.75 96.0312 76.8688 97.175 75.125C98.1188 73.6875 99.3875 72.4875 100.881 71.625C102.725 70.5625 104.65 70.325 106.381 70.3125C107.988 70.3 109.913 70.4938 112.013 70.7L112.45 70.7438C116.113 71.1 119.194 71.4062 121.687 71.9C123.4 72.2375 125.019 72.7 126.537 73.4312C126.12 60.0405 120.508 47.3379 110.888 38.0133C101.268 28.6886 88.3972 23.4742 75 23.4742C61.6028 23.4742 48.7315 28.6886 39.1119 38.0133C29.4923 47.3379 23.8796 60.0405 23.4625 73.4312C24.9812 72.7 26.6 72.2437 28.3125 71.9C30.8125 71.4062 33.8875 71.1063 37.55 70.7438L37.9875 70.7C40.0875 70.4938 42.0125 70.3 43.6125 70.3125C45.35 70.325 47.275 70.5625 49.1125 71.625C50.6125 72.4875 51.8812 73.6875 52.825 75.125C53.9687 76.875 54.3563 78.75 54.5313 80.4938C54.6875 82.1188 54.6875 84.1125 54.6875 86.325V119.05C54.6875 121.65 54.6875 123.969 54.4875 125.85C54.2688 127.85 53.775 130.013 52.2937 131.913C51.3939 133.053 50.2817 134.008 49.0187 134.725C46.8812 135.931 44.6437 136.037 42.6562 135.881C40.4724 135.642 38.3027 135.287 36.1562 134.819L35.7 134.725C32.125 134.025 29.1063 133.425 26.6812 132.694C24.1125 131.913 21.7875 130.862 19.7875 129.019C18.4635 127.799 17.3357 126.382 16.4438 124.819C15.1 122.469 14.5563 119.963 14.3 117.244C14.2018 116.09 14.1393 114.933 14.1125 113.775C13.4043 114.034 12.6438 114.119 11.8959 114.022C11.1479 113.925 10.4344 113.648 9.81599 113.217C9.1976 112.785 8.69256 112.21 8.34377 111.541C7.99498 110.872 7.81273 110.129 7.8125 109.375V96.875C7.81261 96.1251 7.9926 95.3863 8.33738 94.7204C8.68216 94.0545 9.18166 93.481 9.79394 93.0481C10.4062 92.6153 11.1134 92.3356 11.8562 92.2326C12.5989 92.1296 13.3555 92.2063 14.0625 92.4563V75ZM23.4375 107.456C23.4375 111.531 23.4375 114.269 23.6375 116.375C23.825 118.413 24.1625 119.438 24.575 120.162C25.0083 120.904 25.5292 121.558 26.1375 122.125C26.7125 122.656 27.5625 123.162 29.4 123.719C31.325 124.306 33.8813 124.812 37.7313 125.575C40.4938 126.119 42.1688 126.438 43.3937 126.537C43.7489 126.579 44.1078 126.577 44.4625 126.531C44.6277 126.426 44.7753 126.295 44.9 126.144C45.0524 125.728 45.1409 125.292 45.1625 124.85C45.3062 123.531 45.3125 121.725 45.3125 118.812V86.5312C45.3125 84.0438 45.3125 82.525 45.2 81.4062C45.1798 81.0193 45.1084 80.6368 44.9875 80.2688C44.8485 80.0701 44.6724 79.9003 44.4688 79.7687C44.1662 79.7094 43.8583 79.6821 43.55 79.6875C41.9268 79.7382 40.3065 79.8591 38.6938 80.05C34.75 80.4375 32.1313 80.7 30.1313 81.1C28.225 81.475 27.3375 81.9 26.7437 82.35C25.8687 83.0062 25.1187 83.85 24.5562 84.85C24.1562 85.5625 23.8188 86.5875 23.6375 88.6562C23.4438 90.7875 23.4375 93.5625 23.4375 97.675V107.456ZM126.562 97.675C126.562 93.5625 126.562 90.7875 126.363 88.6562C126.175 86.5938 125.844 85.5625 125.444 84.8438C124.895 83.8687 124.15 83.0175 123.256 82.3438C122.663 81.9 121.775 81.475 119.869 81.0938C117.869 80.7 115.25 80.4375 111.306 80.05C109.693 79.8591 108.073 79.7382 106.45 79.6875C106.142 79.6801 105.834 79.7052 105.531 79.7625C105.327 79.8959 105.151 80.0679 105.012 80.2688C104.892 80.6348 104.821 81.0152 104.8 81.4C104.694 82.525 104.688 84.0437 104.688 86.525V118.812C104.688 121.725 104.694 123.531 104.838 124.844C104.858 125.288 104.947 125.726 105.1 126.144C105.233 126.31 105.379 126.44 105.537 126.531C105.637 126.55 105.938 126.594 106.6 126.531C107.838 126.438 109.506 126.119 112.269 125.575C116.119 124.812 118.675 124.306 120.6 123.719C122.438 123.162 123.288 122.656 123.863 122.125C124.471 121.558 124.992 120.904 125.425 120.162C125.838 119.431 126.175 118.413 126.363 116.375C126.556 114.263 126.562 111.531 126.562 107.456V97.675Z" fill="#FFEA00"/>
</svg>
