<svg width="150" height="150" viewBox="0 0 150 150" fill="none" xmlns="http://www.w3.org/2000/svg">
<path d="M68.7499 47.5063L31.2874 98.6939C30.406 99.898 29.9844 101.378 30.099 102.866C30.2137 104.354 30.8569 105.751 31.9124 106.806L37.0187 111.919C38.0896 112.989 39.5124 113.633 41.0228 113.733C42.5332 113.833 44.0286 113.382 45.2312 112.463L94.3124 75.0001" stroke="#FF00EE" stroke-width="2" stroke-linecap="round" stroke-linejoin="round"/>
<path d="M103.125 132.337C96.8749 128.125 89.8249 125 81.2499 125C68.3874 125 56.6999 139.725 43.7499 137.5C30.7999 135.275 26.4062 116.444 34.3749 109.375" stroke="#FF00EE" stroke-width="2" stroke-linecap="round" stroke-linejoin="round"/>
<path d="M100 75C117.259 75 131.25 61.0089 131.25 43.75C131.25 26.4911 117.259 12.5 100 12.5C82.7411 12.5 68.75 26.4911 68.75 43.75C68.75 61.0089 82.7411 75 100 75Z" stroke="#FF00EE" stroke-width="2" stroke-linecap="round" stroke-linejoin="round"/>
</svg>
