<svg width="100" height="100" viewBox="0 0 100 100" fill="none" xmlns="http://www.w3.org/2000/svg">
<path d="M29.1667 20.8334C29.1667 16.4131 30.9226 12.1739 34.0482 9.0483C37.1738 5.9227 41.4131 4.16675 45.8333 4.16675C50.2536 4.16675 54.4928 5.9227 57.6185 9.0483C60.7441 12.1739 62.5 16.4131 62.5 20.8334H75C76.1051 20.8334 77.1649 21.2724 77.9463 22.0538C78.7277 22.8352 79.1667 23.895 79.1667 25.0001V37.5001C83.5869 37.5001 87.8262 39.256 90.9518 42.3816C94.0774 45.5072 95.8333 49.7465 95.8333 54.1668C95.8333 58.587 94.0774 62.8263 90.9518 65.9519C87.8262 69.0775 83.5869 70.8334 79.1667 70.8334V83.3334C79.1667 84.4385 78.7277 85.4983 77.9463 86.2797C77.1649 87.0611 76.1051 87.5001 75 87.5001H16.6667C15.5616 87.5001 14.5018 87.0611 13.7204 86.2797C12.939 85.4983 12.5 84.4385 12.5 83.3334V25.0001C12.5 23.895 12.939 22.8352 13.7204 22.0538C14.5018 21.2724 15.5616 20.8334 16.6667 20.8334H29.1667ZM45.8333 12.5001C44.4999 12.4997 43.1858 12.8194 42.0015 13.4323C40.8172 14.0451 39.7972 14.9332 39.0273 16.0219C38.2574 17.1107 37.76 18.3683 37.5769 19.6891C37.3938 21.01 37.5303 22.3555 37.975 23.6126C38.1971 24.2414 38.265 24.9143 38.173 25.5747C38.081 26.2352 37.8319 26.8639 37.4465 27.4081C37.0611 27.9523 36.5507 28.3961 35.9583 28.7021C35.3658 29.0081 34.7085 29.1675 34.0417 29.1667H20.8333V79.1668H70.8333V65.9584C70.8326 65.2916 70.992 64.6343 71.298 64.0418C71.604 63.4494 72.0478 62.939 72.592 62.5536C73.1362 62.1682 73.7649 61.9191 74.4254 61.8271C75.0858 61.7351 75.7587 61.803 76.3875 62.0251C77.257 62.3418 78.1833 62.5001 79.1667 62.5001C80.3798 62.4992 81.5782 62.2335 82.678 61.7215C83.7778 61.2094 84.7526 60.4634 85.5342 59.5356C86.3158 58.6077 86.8854 57.5204 87.2031 56.3496C87.5209 55.1788 87.5792 53.9527 87.374 52.757C87.1688 51.5613 86.7049 50.4249 86.0149 49.427C85.3249 48.4292 84.4254 47.5941 83.3791 46.98C82.3329 46.3658 81.1651 45.9876 79.9575 45.8716C78.7499 45.7556 77.5315 45.9047 76.3875 46.3084C75.7587 46.5305 75.0858 46.5984 74.4254 46.5064C73.7649 46.4144 73.1362 46.1653 72.592 45.7799C72.0478 45.3945 71.604 44.8841 71.298 44.2917C70.992 43.6992 70.8326 43.0419 70.8333 42.3751V29.1667H57.625C56.9582 29.1675 56.3009 29.0081 55.7084 28.7021C55.1159 28.3961 54.6056 27.9523 54.2202 27.4081C53.8348 26.8639 53.5856 26.2352 53.4937 25.5747C53.4017 24.9143 53.4696 24.2414 53.6917 23.6126C54.0083 22.7459 54.1667 21.8195 54.1667 20.8334C54.1667 18.6233 53.2887 16.5037 51.7259 14.9409C50.1631 13.3781 48.0435 12.5001 45.8333 12.5001Z" fill="#891BC9"/>
</svg>
