<svg width="100" height="100" viewBox="0 0 100 100" fill="none" xmlns="http://www.w3.org/2000/svg">
<path d="M54.4165 13.6792C53.2446 12.5087 51.6561 11.8513 49.9999 11.8513C48.3436 11.8513 46.7551 12.5087 45.5832 13.6792L22.004 37.2458C20.8315 38.4183 20.1729 40.0085 20.1729 41.6667C20.1729 43.3248 20.8315 44.915 22.004 46.0875C23.1765 47.26 24.7667 47.9187 26.4249 47.9187C28.083 47.9187 29.6732 47.26 30.8457 46.0875L43.7499 33.1875V81.25C43.7499 82.9076 44.4083 84.4973 45.5804 85.6694C46.7525 86.8415 48.3423 87.5 49.9999 87.5C51.6575 87.5 53.2472 86.8415 54.4193 85.6694C55.5914 84.4973 56.2499 82.9076 56.2499 81.25V33.1875L69.1499 46.0875C69.7304 46.668 70.4196 47.1286 71.1781 47.4427C71.9367 47.7569 72.7497 47.9187 73.5707 47.9187C74.3917 47.9187 75.2047 47.7569 75.9632 47.4427C76.7217 47.1286 77.411 46.668 77.9915 46.0875C78.5721 45.5069 79.0326 44.8177 79.3468 44.0592C79.661 43.3007 79.8227 42.4877 79.8227 41.6667C79.8227 40.8456 79.661 40.0326 79.3468 39.2741C79.0326 38.5156 78.5721 37.8264 77.9915 37.2458L54.4165 13.6792Z" fill="#891BC9"/>
</svg>
